<?xml version="1.0" encoding="UTF-8"?>
<svg width="171px" height="50px" viewBox="0 0 171 50" version="1.1" xmlns="http://www.w3.org/2000/svg" xmlns:xlink="http://www.w3.org/1999/xlink">
    <title>B2E5FC60-5396-43D1-9F3B-413C7F6437ED</title>
    <defs>
        <polygon id="path-1" points="1.73846154 0.156490385 3.92668269 2.32283654 2.34663462 3.91947115 0.101442308 1.81033654"></polygon>
        <polygon id="path-3" points="2.20144231 0.0663461538 3.85528846 1.703125 1.68990385 3.89399038 0.0925480769 2.31129808"></polygon>
        <polygon id="path-5" points="2.39807692 0.0435096154 3.99447115 1.62355769 1.88557692 3.86875 0.231730769 2.23173077"></polygon>
        <polygon id="path-7" points="1.73605769 0.0228365385 3.98100962 2.13197115 2.34423077 3.78581731 0.156009615 1.61923077"></polygon>
    </defs>
    <g id="HomePage" stroke="none" stroke-width="1" fill="none" fill-rule="evenodd">
        <g id="Home---Default-" transform="translate(-195.000000, -6550.000000)">
            <g id="Footer-#9" transform="translate(0.000000, 6475.000000)">
                <g id="Elements-/-Logos-/-Uno-/-Horizontal-/-Black" transform="translate(195.000000, 75.000000)">
                    <g id="Group-41" transform="translate(0.000116, 0.000082)">
                        <path d="M34.7578649,38.8648938 L34.7463265,38.8648938 C31.8922399,38.8598457 29.3419995,36.8817207 26.1523361,33.6922976 L19.2220476,26.8192207 L21.3881534,24.6307591 L28.3251726,31.5103264 C31.4001726,34.5853264 33.2008938,35.7826822 34.7518553,35.7855668 L34.7571438,35.7855668 C36.3237303,35.7855668 38.2239707,34.5242688 41.3145957,31.4334034 L44.8559418,27.8459034 C46.6398361,26.0617688 47.4251726,24.5067207 47.2643553,23.0841245 C47.1333457,21.9278745 46.3703649,20.6872495 44.862913,19.1797976 L44.8299803,19.145663 C43.2018553,17.414413 41.2109899,15.483163 39.1311822,14.4139322 C38.7446438,12.4372495 37.4794995,10.8805188 37.2994515,10.595663 C41.1030572,11.1545572 44.497288,14.298788 47.0573841,17.0197014 C49.8458457,19.8134514 52.8607495,24.195663 47.0403168,30.0160957 L43.4992111,33.6038361 C40.2487303,36.8543168 37.6557015,38.8648938 34.7578649,38.8648938" id="Fill-1" fill="#7A67F8"></path>
                        <path d="M25.3988265,28.608163 L31.8906534,22.0459034 C34.9670957,18.9697014 36.1644515,17.1689803 36.1673361,15.6180188 C36.1704611,14.0507111 34.9094034,12.1492688 31.8151726,9.05527837 L28.2276726,5.5141726 C24.5803168,1.8672976 22.3690188,2.69926876 19.5613265,5.50696106 L19.5274322,5.54013414 C17.9880091,6.98748991 16.2908938,8.72186491 15.1819995,10.5502303 C14.1507495,10.6225861 12.8204611,10.973788 11.1851245,12.0677784 C12.0908938,8.67138414 14.921663,5.64566299 17.4009899,3.31248991 C20.1952207,0.524028371 24.5774322,-2.49111586 30.3976245,3.32955722 L33.9856053,6.87066299 C37.240413,10.1254707 39.2519515,12.7213841 39.2466734,15.623788 C39.2411341,18.4776341 37.2634899,21.0278745 34.0738265,24.217538 L27.5853649,30.7766726 L25.3988265,28.608163 Z" id="Fill-3" fill="#F85977"></path>
                        <path d="M12.5220476,38.7071534 C8.9393553,37.9458553 5.74584569,34.9718168 3.30834569,32.3814322 C2.034788,31.1054707 0.320845688,29.1302303 0.0415187644,26.6629226 C-0.231798543,24.2484995 0.842239918,21.8674899 3.32517261,19.3845572 L6.86651876,15.7968168 C10.1165188,12.5465764 12.7102688,10.5357591 15.6076245,10.5357591 L15.6194034,10.5357591 C18.4734899,10.5410476 21.0237303,12.5186918 24.2131534,15.7083553 L31.2590668,22.6843168 L29.0936822,24.8734995 L22.0412784,17.8910476 C18.9653168,14.8153264 17.1645957,13.6177303 15.6136341,13.6150861 L15.6081053,13.6150861 C14.0419995,13.6150861 12.1415188,14.8763841 9.05113415,17.9672495 L5.509788,21.5547495 C3.72589376,23.3391245 2.94007646,24.894413 3.10113415,26.3165284 C3.23214376,27.4730188 3.99512453,28.7134034 5.50257646,30.2206149 L5.53574953,30.2549899 C7.08598992,31.903788 8.96555723,33.7338361 10.9371918,34.8278264 C11.1049803,36.5667688 12.1371918,38.1247014 12.5220476,38.7071534" id="Fill-5" fill="#159BFF"></path>
                        <path d="M26.3203409,49.8272736 C24.3948601,49.8272736 22.2059178,48.9409755 19.7624082,46.4974659 L16.1746678,42.9568409 C9.1669755,35.9489082 9.15086973,32.5455428 16.0862063,25.6097255 L22.8883697,18.7376101 L25.080437,20.9001101 L18.2693793,27.7816005 C15.1931774,30.8580428 13.9955813,32.6585236 13.992937,34.2092447 C13.9900524,35.7767928 15.2508697,37.6782351 18.3451005,40.7722255 L21.9328409,44.3133313 C25.5789947,47.9594851 27.7907736,47.1284755 30.5989466,44.3205428 L30.6328409,44.2876101 C32.2864466,42.732562 34.1326005,40.8287159 35.225389,38.8510716 C36.8869274,38.7102063 38.1268313,38.0094851 39.0604851,37.4130909 C38.261687,40.9501101 35.3227447,44.1029947 32.7590428,46.5150139 C31.1381293,48.1328024 28.9813986,49.8272736 26.3203409,49.8272736" id="Fill-7" fill="#67E5AD"></path>
                        <g id="Group-11" transform="translate(21.153730, 18.577322)">
                            <mask id="mask-2" fill="white">
                                <use xlink:href="#path-1"></use>
                            </mask>
                            <g id="Clip-10"></g>
                            <polygon id="Fill-9" mask="url(#mask-2)" points="0.101442308 1.81033654 1.73846154 0.156490385 3.92668269 2.32283654 2.34663462 3.91947115"></polygon>
                        </g>
                        <g id="Group-14" transform="translate(27.403730, 20.981168)">
                            <mask id="mask-4" fill="white">
                                <use xlink:href="#path-3"></use>
                            </mask>
                            <g id="Clip-13"></g>
                            <polygon id="Fill-12" mask="url(#mask-4)" points="2.20144231 0.0663461538 3.85528846 1.703125 1.68990385 3.89399038 0.0925480769 2.31129808"></polygon>
                        </g>
                        <g id="Group-17" transform="translate(18.990269, 24.586937)">
                            <mask id="mask-6" fill="white">
                                <use xlink:href="#path-5"></use>
                            </mask>
                            <g id="Clip-16"></g>
                            <polygon id="Fill-15" mask="url(#mask-6)" points="1.88557692 3.86875 0.231730769 2.23173077 2.39807692 0.0435096154 3.99447115 1.62355769"></polygon>
                        </g>
                        <g id="Group-20" transform="translate(25.240269, 26.990783)">
                            <mask id="mask-8" fill="white">
                                <use xlink:href="#path-7"></use>
                            </mask>
                            <g id="Clip-19"></g>
                            <polygon id="Fill-18" mask="url(#mask-8)" points="3.98100962 2.13197115 2.34423077 3.78581731 0.156009615 1.61923077 1.73605769 0.0228365385"></polygon>
                        </g>
                        <path d="M124.91099,20.7018889 C124.934067,22.2153505 124.954019,23.522562 124.885269,29.0603024 L124.86748,30.5456389 L118.88623,30.5456389 L118.88623,17.3165524 C118.88623,12.7228024 115.211471,8.98578318 110.694884,8.98578318 C106.101375,8.98578318 102.364115,12.7228024 102.364115,17.3165524 L102.364115,30.5456389 L96.5042591,30.5456389 L96.5042591,17.3165524 C96.5042591,9.49179279 102.870365,3.12592741 110.694884,3.12592741 C118.519403,3.12592741 124.885509,9.49179279 124.885509,17.3165524 C124.885509,19.0045332 124.89825,19.8675139 124.91099,20.7018889 L124.91099,20.7018889 Z M84.6345476,4.08722549 L90.494163,4.08722549 L90.494163,17.316312 C90.494163,25.1408313 84.128538,31.506937 76.3037784,31.506937 C68.4792591,31.506937 62.1136341,25.1408313 62.1136341,17.316312 L62.109788,17.1420332 C62.0355091,13.816312 62.0708457,9.01462933 62.1136341,5.57232164 L62.1311822,4.08722549 L68.1124322,4.08722549 L68.1124322,17.316312 C68.1124322,21.9098216 71.7871918,25.6470813 76.3037784,25.6470813 C80.8975284,25.6470813 84.6345476,21.9098216 84.6345476,17.316312 L84.6345476,4.08722549 Z M145.133105,25.6470813 C140.539596,25.6470813 136.802576,21.9098216 136.802576,17.316312 C136.802576,12.7228024 140.539596,8.98578318 145.133105,8.98578318 C149.726615,8.98578318 153.463875,12.7228024 153.463875,17.316312 C153.463875,21.9098216 149.726615,25.6470813 145.133105,25.6470813 L145.133105,25.6470813 Z M145.133105,3.12592741 C137.308346,3.12592741 130.942721,9.49155241 130.942721,17.316312 C130.942721,25.1408313 137.308346,31.506937 145.133105,31.506937 C152.957625,31.506937 159.32325,25.1408313 159.32325,17.316312 C159.32325,9.49155241 152.957625,3.12592741 145.133105,3.12592741 L145.133105,3.12592741 Z" id="Fill-21" fill="#FFFFFF"></path>
                        <path d="M63.9784418,42.4084514 L64.5298841,42.4084514 C65.0452688,42.4084514 65.4308457,42.3067688 65.6868553,42.1029226 C65.9428649,41.8995572 66.0707495,41.6029226 66.0707495,41.2134995 C66.0707495,40.8209514 65.963538,40.5305668 65.7491149,40.3430668 C65.5346918,40.1558072 65.1983938,40.0620572 64.7407015,40.0620572 L63.9784418,40.0620572 L63.9784418,42.4084514 Z M67.7630572,41.1541245 C67.7630572,42.0048457 67.4971918,42.6555668 66.9657015,43.1058072 C66.4339707,43.5565284 65.6779611,43.7817688 64.6974322,43.7817688 L63.9784418,43.7817688 L63.9784418,46.5933072 L62.3024803,46.5933072 L62.3024803,38.6887399 L64.8272399,38.6887399 C65.7861341,38.6887399 66.5149803,38.8952303 67.0142591,39.3079707 C67.513538,39.7204707 67.7630572,40.3360957 67.7630572,41.1541245 L67.7630572,41.1541245 Z" id="Fill-23" fill="#FFFFFF"></path>
                        <polygon id="Fill-25" fill="#FFFFFF" points="74.7917591 46.5933553 74.7917591 38.688788 76.4677207 38.688788 76.4677207 45.2092207 79.6739707 45.2092207 79.6739707 46.5933553"></polygon>
                        <path d="M90.4493793,43.3061438 C89.9195716,41.6010957 89.6212543,40.636913 89.5544274,40.4135957 C89.4878409,40.190038 89.4402447,40.0133553 89.4113986,39.883788 C89.2926486,40.3450861 88.9520236,41.4859514 88.3895236,43.3061438 L90.4493793,43.3061438 Z M91.4226966,46.5934034 L90.8493793,44.711913 L87.967889,44.711913 L87.3945716,46.5934034 L85.5888024,46.5934034 L88.3787063,38.6563841 L90.4277447,38.6563841 L93.2287063,46.5934034 L91.4226966,46.5934034 Z" id="Fill-27" fill="#FFFFFF"></path>
                        <polygon id="Fill-29" fill="#FFFFFF" points="102.808995 46.5933553 101.132793 46.5933553 101.132793 40.0837399 98.986639 40.0837399 98.986639 38.688788 104.955629 38.688788 104.955629 40.0837399 102.808995 40.0837399"></polygon>
                        <polygon id="Fill-31" fill="#FFFFFF" points="113.357288 46.5933553 111.70849 46.5933553 111.70849 38.688788 116.239259 38.688788 116.239259 40.0621053 113.357288 40.0621053 113.357288 42.1005668 116.039019 42.1005668 116.039019 43.4683553 113.357288 43.4683553"></polygon>
                        <path d="M124.727673,42.6303024 C124.727673,43.5134755 124.895221,44.1783793 125.230557,44.6252543 C125.565653,45.0721293 126.066615,45.2959274 126.733442,45.2959274 C128.070701,45.2959274 128.739211,44.4074659 128.739211,42.6303024 C128.739211,40.8497736 128.074548,39.9593889 126.7445,39.9593889 C126.077432,39.9593889 125.574548,40.1836678 125.235846,40.6322255 C124.896903,41.0812639 124.727673,41.7471293 124.727673,42.6303024 M130.496663,42.6303024 C130.496663,43.9387159 130.171903,44.9444851 129.523346,45.6471293 C128.874548,46.3500139 127.94474,46.7016966 126.733442,46.7016966 C125.522625,46.7016966 124.592576,46.3500139 123.943778,45.6471293 C123.29498,44.9444851 122.970461,43.9351101 122.970461,42.6194851 C122.970461,41.3038601 123.295701,40.2992928 123.946423,39.6053024 C124.597144,38.911312 125.529596,38.564437 126.7445,38.564437 C127.958923,38.564437 128.88825,38.9139563 129.531278,39.6132351 C130.174788,40.3125139 130.496663,41.3182832 130.496663,42.6303024" id="Fill-33" fill="#FFFFFF"></path>
                        <path d="M139.347216,42.1976582 L139.887841,42.1976582 C140.417649,42.1976582 140.808754,42.1096774 141.061158,41.9327543 C141.313562,41.7560716 141.439524,41.4786678 141.439524,41.1003024 C141.439524,40.7253024 141.310677,40.4587159 141.052985,40.2998216 C140.795293,40.1414082 140.396014,40.0620813 139.855389,40.0620813 L139.347216,40.0620813 L139.347216,42.1976582 Z M139.347216,43.5601582 L139.347216,46.5933313 L137.671014,46.5933313 L137.671014,38.6887639 L139.974139,38.6887639 C141.048418,38.6887639 141.843129,38.884437 142.358754,39.2755428 C142.874139,39.6666486 143.131831,40.2603986 143.131831,41.0567928 C143.131831,41.5216966 143.003947,41.9356389 142.747937,42.2976582 C142.492168,42.6599178 142.129668,42.943812 141.661158,43.1493409 C142.850581,44.9265043 143.625581,46.0743409 143.986158,46.5933313 L142.126302,46.5933313 L140.239283,43.5601582 L139.347216,43.5601582 Z" id="Fill-35" fill="#FFFFFF"></path>
                        <path d="M153.863971,46.5933553 L151.961086,40.391913 L151.912288,40.391913 C151.980798,41.6534514 152.015173,42.495038 152.015173,42.916913 L152.015173,46.5933553 L150.517336,46.5933553 L150.517336,38.688788 L152.798826,38.688788 L154.66974,44.7334995 L154.702192,44.7334995 L156.686326,38.688788 L158.968057,38.688788 L158.968057,46.5933553 L157.405557,46.5933553 L157.405557,42.8520091 C157.405557,42.6753264 157.408201,42.4717207 157.41373,42.2411918 C157.419019,42.0104226 157.443538,41.3976822 157.486567,40.4027303 L157.437769,40.4027303 L155.399788,46.5933553 L153.863971,46.5933553 Z" id="Fill-37" fill="#FFFFFF"></path>
                        <path d="M167.621062,2.90121587 L167.824427,2.90121587 C167.96962,2.90121587 168.079475,2.86684087 168.154235,2.79809087 C168.228754,2.72934087 168.266254,2.63126395 168.266254,2.50361972 C168.266254,2.36227356 168.230197,2.26371587 168.158562,2.20746587 C168.086687,2.15169664 167.973466,2.12381202 167.818177,2.12381202 L167.621062,2.12381202 L167.621062,2.90121587 Z M168.82587,2.49184087 C168.82587,2.82741779 168.675629,3.05650433 168.375149,3.17813895 L169.073225,4.3476101 L168.451591,4.3476101 L167.886206,3.32837933 L167.621062,3.32837933 L167.621062,4.3476101 L167.064331,4.3476101 L167.064331,1.68751395 L167.836206,1.68751395 C168.177552,1.68751395 168.428033,1.75434087 168.587168,1.88799472 C168.746302,2.02164856 168.82587,2.22285049 168.82587,2.49184087 L168.82587,2.49184087 Z M166.074427,3.0163601 C166.074427,3.35001395 166.15736,3.65962933 166.323466,3.94544664 C166.489331,4.23126395 166.715533,4.45650433 167.002552,4.62140818 C167.289091,4.78655241 167.597264,4.86900433 167.927312,4.86900433 C168.261206,4.86900433 168.571302,4.7851101 168.858081,4.61708126 C169.14486,4.44905241 169.3701,4.22333126 169.534283,3.93943702 C169.698225,3.65602356 169.779956,3.34785049 169.779956,3.0163601 C169.779956,2.68607164 169.697264,2.37741779 169.531158,2.08967741 C169.365293,1.80217741 169.13837,1.5757351 168.85087,1.41083126 C168.563129,1.24568702 168.255437,1.16347549 167.927312,1.16347549 C167.597264,1.16347549 167.290533,1.24472549 167.006879,1.40770626 C166.723225,1.57092741 166.496783,1.79568702 166.327793,2.08246587 C166.159043,2.36900433 166.074427,2.68030241 166.074427,3.0163601 L166.074427,3.0163601 Z M165.712408,3.0163601 C165.712408,2.62357164 165.810485,2.25506202 166.006879,1.91155241 C166.203274,1.56780241 166.473225,1.29688895 166.816735,1.09857164 C167.160485,0.900254332 167.530677,0.801215871 167.927312,0.801215871 C168.3201,0.801215871 168.688129,0.899292794 169.031879,1.09544664 C169.375629,1.29208126 169.646543,1.56203318 169.84486,1.90554279 C170.043177,2.24929279 170.142456,2.6194851 170.142456,3.0163601 C170.142456,3.40313895 170.047264,3.7663601 169.856879,4.10602356 C169.666254,4.44592741 169.398947,4.71780241 169.055677,4.92188895 C168.711927,5.12621587 168.335966,5.22837933 167.927312,5.22837933 C167.520822,5.22837933 167.145581,5.12669664 166.802072,4.92333126 C166.458562,4.71996587 166.191014,4.44857164 165.999427,4.10890818 C165.808081,3.76924472 165.712408,3.40506202 165.712408,3.0163601 L165.712408,3.0163601 Z" id="Fill-39" fill="#FFFFFF"></path>
                    </g>
                </g>
            </g>
        </g>
    </g>
</svg>